<svg xmlns="http://www.w3.org/2000/svg" viewBox="0 0 452.161 452.161">
  <path d="M440.4 43.4l-26-26c-4.8-4.8-11-7.4-17.7-7.4s-12.8 2.6-17.5 7.3l-7.4 7.3-.5-.5c-2.8-2.7-6.5-4.2-10.4-4.2s-7.7 1.5-10.5 4.3l-25 25.2L318 42l32-32-10-10-173.5 173.6c-9.5 9.5-23 13.7-36.2 11.4l-2.4 13.8c3.3.5 6.5.8 9.7.8 14.5 0 28.5-5.7 39-16L308.2 51.7l7.2 7.3L94.7 280c-24 24-43 51.8-56.8 83l-24.4 55 7.6 7.6-16.7 16.7 10 10L31 435.4l8.7 8.6 55-24.2c31-13.7 59-32.8 83-57l256-255.7c5.6-5.6 5.6-15 0-20.6l-.7-.6 7.4-7.3c9.7-9.7 9.7-25.4 0-35zM89 407L43 427.4 30.2 415l20.5-46.4c5-11.6 11-22.7 17.6-33.3l54 54C111.7 396 100.6 402 89 407zm79-54c-10.6 10.5-21.8 20-33.8 28.5l-58-58c8.5-12 18-23.3 28.4-33.7L345 49.3l63.3 63.3L168 353zM423.6 97.3l-5.5 5.5L355 39.4l5.4-5.4c.3-.3.7-.3 1 0l62.3 62.3c.3.3.3.7 0 1zm6.8-28.6L423 76l-41.3-41.5 7.4-7.3c2-2 4.8-3.2 7.7-3.2s5.6 1 7.7 3.2l26 26c4.3 4.3 4.3 11.2 0 15.4z" fill="#FFF"/>
</svg>
